<?xml version="1.0" encoding="utf-8"?>
<!-- Generator: Adobe Illustrator 24.0.0, SVG Export Plug-In . SVG Version: 6.00 Build 0)  -->
<svg version="1.1" id="Layer_1" xmlns="http://www.w3.org/2000/svg" xmlns:xlink="http://www.w3.org/1999/xlink" x="0px" y="0px"
	 viewBox="0 0 412 84" style="enable-background:new 0 0 412 84;" xml:space="preserve">
<style type="text/css">
	.st0{fill:#404040;}
	.st1{fill:#325765;}
	.st2{fill:#20B2AA;}
</style>
<g>
	<g>
		<path class="st0" d="M142.3,63.1c-0.6-0.6-1.3-0.9-2.2-1c-0.9-0.1-2,0.2-3.2,0.9c-1.7,0.9-3.5,1.6-5.3,1.9
			c-1.9,0.4-3.6,0.6-5.1,0.6c-4.3,0-7.6-1.2-9.9-3.5c-1.8-1.9-2.8-4.5-3.2-7.9h26.2c1.3,0,2.4-0.3,3.1-0.8c0.7-0.6,1.1-1.3,1.1-2.4
			c0-3.3-0.4-6.3-1.3-8.9c-0.9-2.6-2.2-4.9-3.9-6.7c-1.7-1.8-3.8-3.3-6.2-4.3c-2.4-1-5.1-1.5-8.1-1.5c-4.1,0-7.8,0.9-11,2.8
			c-3.2,1.9-5.7,4.5-7.6,7.8c-1.8,3.3-2.7,7.2-2.7,11.5c0,4.5,0.9,8.4,2.8,11.7s4.6,5.8,8,7.6s7.6,2.7,12.4,2.7
			c2.3,0,4.7-0.3,7.3-0.9s5-1.6,7-2.8c1-0.6,1.8-1.4,2.2-2.3c0.4-0.9,0.6-1.7,0.5-2.6C143.2,64.4,142.8,63.7,142.3,63.1z
			 M114.6,43.5c0.9-2.1,2.2-3.7,3.9-4.8c1.7-1.1,3.8-1.7,6.2-1.7c2.2,0,4,0.5,5.5,1.4c1.5,1,2.6,2.3,3.4,4.1c0.7,1.5,1,3.3,1.1,5.4
			h-21.3C113.6,46.3,114,44.8,114.6,43.5z"/>
		<path class="st0" d="M179.8,16.3c-0.2,0.8-0.5,1.5-1.1,2.1s-1.3,0.9-2.1,1l-1.2,0.1c-3.3,0.2-5.7,1.1-7.2,2.5
			c-1.5,1.5-2.3,3.7-2.3,6.6v1.8h7.4c1.4,0,2.5,0.3,3.2,1c0.8,0.7,1.1,1.7,1.1,3c0,1.3-0.4,2.3-1.1,3c-0.8,0.7-1.8,1.1-3.2,1.1h-7.4
			v29.4c0,3.7-1.8,5.6-5.4,5.6c-1.7,0-3.1-0.5-4-1.4c-0.9-0.9-1.4-2.3-1.4-4.1V38.7h-4c-1.4,0-2.5-0.4-3.2-1.1
			c-0.8-0.7-1.1-1.7-1.1-3c0-1.3,0.4-2.3,1.1-3c0.8-0.7,1.8-1,3.2-1h4v-0.1c0-6,1.5-10.4,4.5-13.4c3-3,7.3-4.7,13-5.2l3-0.3
			c1.1-0.1,2.1,0.1,2.8,0.6c0.7,0.5,1.2,1.1,1.4,1.9C179.9,14.7,180,15.5,179.8,16.3z"/>
		<path class="st0" d="M189.2,73.5c-1.7,0-3.1-0.5-4-1.6c-0.9-1-1.4-2.5-1.4-4.3V35.8c0-1.9,0.5-3.4,1.4-4.4c0.9-1,2.3-1.5,4-1.5
			s3.1,0.5,4,1.5c1,1,1.4,2.5,1.4,4.4v31.8c0,1.8-0.5,3.3-1.4,4.3C192.3,73,191,73.5,189.2,73.5z"/>
		<path class="st0" d="M220.4,73.8c-4.8,0-8.4-1.4-10.9-4.1c-2.4-2.8-3.6-6.8-3.6-12.1v-41c0-1.8,0.5-3.2,1.4-4.1
			c0.9-0.9,2.3-1.4,4-1.4s3.1,0.5,4,1.4c0.9,0.9,1.4,2.3,1.4,4.1V57c0,2.7,0.6,4.6,1.7,5.9c1.1,1.3,2.7,1.9,4.8,1.9
			c0.5,0,0.9,0,1.3,0c0.4,0,0.8-0.1,1.2-0.1c0.8-0.1,1.4,0.1,1.6,0.7s0.4,1.7,0.4,3.3c0,1.4-0.3,2.6-0.9,3.4s-1.5,1.3-2.9,1.5
			c-0.6,0.1-1.2,0.1-1.8,0.2C221.7,73.8,221.1,73.8,220.4,73.8z"/>
		<path class="st0" d="M270.1,63.1c-0.5-0.6-1.3-0.9-2.2-1c-0.9-0.1-2,0.2-3.2,0.9c-1.7,0.9-3.5,1.6-5.3,1.9
			c-1.9,0.4-3.6,0.6-5.1,0.6c-4.3,0-7.6-1.2-9.9-3.5c-1.8-1.9-2.8-4.5-3.2-7.9h26.2c1.3,0,2.4-0.3,3.1-0.8c0.7-0.6,1.1-1.3,1.1-2.4
			c0-3.3-0.5-6.3-1.4-8.9c-0.9-2.6-2.2-4.9-3.9-6.7c-1.7-1.8-3.8-3.3-6.2-4.3c-2.4-1-5.1-1.5-8.1-1.5c-4.1,0-7.8,0.9-11,2.8
			c-3.2,1.9-5.7,4.5-7.5,7.8c-1.8,3.3-2.7,7.2-2.7,11.5c0,4.5,0.9,8.4,2.8,11.7s4.5,5.8,8,7.6c3.5,1.8,7.6,2.7,12.4,2.7
			c2.3,0,4.7-0.3,7.3-0.9s5-1.6,7-2.8c1-0.6,1.8-1.4,2.2-2.3s0.6-1.7,0.5-2.6C271,64.4,270.7,63.7,270.1,63.1z M242.4,43.5
			c0.9-2.1,2.2-3.7,3.9-4.8s3.8-1.7,6.2-1.7c2.2,0,4,0.5,5.5,1.4c1.5,1,2.6,2.3,3.4,4.1c0.6,1.5,1,3.3,1.1,5.4h-21.3
			C241.5,46.3,241.9,44.8,242.4,43.5z"/>
		<path class="st0" d="M299.5,73.8c-3.8,0-6.9-0.6-9.4-1.9c-2.5-1.3-4.4-3.1-5.6-5.6c-1.2-2.5-1.8-5.5-1.8-9.2V38.7h-4.5
			c-1.4,0-2.5-0.4-3.2-1.1c-0.8-0.7-1.1-1.7-1.1-3c0-1.3,0.4-2.3,1.1-3c0.8-0.7,1.8-1,3.2-1h4.5v-7.9c0-1.8,0.5-3.2,1.4-4.1
			c1-0.9,2.3-1.4,4-1.4c1.7,0,3.1,0.5,4,1.4s1.4,2.3,1.4,4.1v7.9h9.2c1.4,0,2.5,0.3,3.2,1c0.8,0.7,1.1,1.7,1.1,3
			c0,1.3-0.4,2.3-1.1,3c-0.8,0.7-1.8,1.1-3.2,1.1h-9.2v17.9c0,2.8,0.6,4.9,1.8,6.3c1.2,1.4,3.2,2.1,5.9,2.1c1,0,1.9-0.1,2.6-0.3
			s1.4-0.3,2-0.3c0.7-0.1,1.3,0.2,1.7,0.7s0.7,1.5,0.7,3c0,1.2-0.2,2.2-0.6,3.1c-0.4,0.9-1.1,1.5-2,1.9c-0.8,0.2-1.7,0.4-3,0.7
			C301.5,73.7,300.4,73.8,299.5,73.8z"/>
		<path class="st0" d="M347.8,37.3c-1.3-2.6-3.3-4.5-6-5.8c-2.7-1.3-6.1-1.9-10.3-1.9c-2,0-4.3,0.2-6.7,0.7c-2.5,0.5-5,1.2-7.7,2.3
			c-1.1,0.4-1.9,1-2.4,1.9c-0.5,0.8-0.7,1.7-0.7,2.6c0,0.9,0.2,1.7,0.7,2.4c0.5,0.7,1.1,1.2,2,1.4c0.8,0.2,1.8,0.1,2.9-0.4
			c2.1-1,4.2-1.7,6.1-2.1c1.9-0.4,3.8-0.6,5.4-0.6c3,0,5.2,0.6,6.4,1.9s1.9,3.4,1.9,6.3v1.8h-3c-6.1,0-11,0.4-14.7,1.2
			c-3.6,0.8-6.3,2.1-7.9,3.9c-1.6,1.8-2.4,4.3-2.4,7.4c0,2.5,0.7,4.8,2,6.8c1.4,2,3.2,3.6,5.6,4.8c2.4,1.2,5.1,1.8,8.2,1.8
			c2.3,0,4.4-0.4,6.2-1.2c1.8-0.8,3.3-1.9,4.5-3.4c0.7-0.9,1.3-1.8,1.7-2.9v1.8c0,1.8,0.5,3.2,1.4,4.1c0.9,1,2.1,1.4,3.8,1.4
			s2.9-0.5,3.7-1.4c0.9-0.9,1.3-2.3,1.3-4.1V47.2C349.8,43.2,349.2,39.9,347.8,37.3z M339.5,55.9c0,2-0.4,3.8-1.3,5.4
			c-0.9,1.6-2,2.8-3.5,3.7c-1.5,0.9-3.2,1.3-5.1,1.3c-2.4,0-4.2-0.6-5.5-1.8c-1.3-1.2-2-2.8-2-4.7c0-1.5,0.5-2.7,1.4-3.5
			c0.9-0.8,2.4-1.4,4.5-1.8c2.1-0.3,5-0.5,8.6-0.5h3L339.5,55.9L339.5,55.9z"/>
		<path class="st0" d="M398.7,69.4c-0.1,1.2-0.5,2.1-1.4,2.9c-0.8,0.8-1.9,1.1-3.3,1.1c-1.3,0-2.4-0.2-3.2-0.7
			c-0.9-0.5-1.7-1.2-2.5-2.2l-9.5-11.9l-9.4,11.9c-0.8,0.9-1.6,1.6-2.4,2.1c-0.9,0.5-2,0.7-3.3,0.7c-1.3,0-2.3-0.4-3.2-1.1
			c-0.8-0.7-1.3-1.7-1.3-2.8c0-1.2,0.5-2.4,1.4-3.6l12-14.8l-11.1-13.7c-1-1.3-1.5-2.5-1.5-3.7c0.1-1.2,0.5-2.1,1.4-2.8
			c0.8-0.7,1.9-1.1,3.2-1.1c1.3,0,2.4,0.2,3.3,0.7c0.9,0.5,1.7,1.2,2.5,2.2l8.5,10.9l8.6-10.9c0.8-1,1.6-1.7,2.5-2.2
			c0.9-0.5,1.9-0.7,3.2-0.7c1.3,0,2.4,0.4,3.2,1.1c0.8,0.8,1.2,1.7,1.3,2.9c0,1.2-0.5,2.4-1.5,3.6l-11.1,13.6l12.1,14.8
			C398.3,67,398.7,68.2,398.7,69.4z"/>
	</g>
	<g>
		<g>
			<g>
				<path class="st1" d="M45,73.8c-12,0-22.7-6.6-28.1-17.3c-1-2.1-0.2-4.6,1.9-5.7s4.6-0.2,5.7,1.9c3.9,7.8,11.8,12.7,20.5,12.7
					s16.6-4.9,20.6-12.7c1.1-2.1,3.6-2.9,5.7-1.9s2.9,3.6,1.9,5.7C67.7,67.2,56.9,73.8,45,73.8z"/>
			</g>
		</g>
		<g>
			<path class="st2" d="M72.2,46.3H36.3c-2.3,0-4.2-1.9-4.2-4.2c0-2.3,1.9-4.2,4.2-4.2h31.2C65.5,27.3,56.1,19.3,45,19.3
				c-12.6,0-22.9,10.2-23,22.8c0,2.3-1.9,4.2-4.3,4.2c-2.3,0-4.2-1.9-4.2-4.3C13.7,24.9,27.8,10.9,45,10.9s31.3,14,31.5,31.2
				c0,1.1-0.4,2.2-1.2,3C74.4,45.9,73.3,46.3,72.2,46.3z"/>
		</g>
	</g>
	<path class="st0" d="M189.2,22.5c-2,0-3.6-0.5-4.7-1.5c-1.1-1-1.7-2.4-1.7-4.2c0-1.8,0.6-3.3,1.7-4.3c1.1-1,2.7-1.5,4.7-1.5
		c2.1,0,3.7,0.5,4.8,1.5c1.1,1,1.6,2.4,1.6,4.3c0,1.8-0.6,3.2-1.6,4.2C192.9,22,191.3,22.5,189.2,22.5z"/>
</g>
</svg>
